<?xml version="1.0" encoding="UTF-8"?>
<!DOCTYPE svg PUBLIC "-//W3C//DTD SVG 1.1//EN" "http://www.w3.org/Graphics/SVG/1.1/DTD/svg11.dtd">
<!-- ph-book-open-fill: Phosphor Icons (MIT, phosphoricons.com), converted to a custom symbol for Shelfie. -->
<svg version="1.1" xmlns="http://www.w3.org/2000/svg" width="3300" height="2200">
  <g id="Notes">
    <rect id="artboard" style="fill:white;opacity:1" x="0" y="0" width="3300" height="2200"/>
    <text id="template-version" style="stroke:none;fill:black;font-family:sans-serif;font-size:13;" transform="matrix(1 0 0 1 3036 1933)">Template v.3.0</text>
    <text id="descriptive-name" style="stroke:none;fill:black;font-family:sans-serif;font-size:13;" transform="matrix(1 0 0 1 263 1933)">ph-book-open-fill</text>
  </g>
  <g id="Guides">
    <line id="Baseline-S" style="fill:none;stroke:#27AAE1;opacity:1;stroke-width:0.5;" x1="263" y1="696" x2="3036" y2="696"/>
    <line id="Capline-S" style="fill:none;stroke:#27AAE1;opacity:1;stroke-width:0.5;" x1="263" y1="625.541" x2="3036" y2="625.541"/>
    <line id="Baseline-M" style="fill:none;stroke:#27AAE1;opacity:1;stroke-width:0.5;" x1="263" y1="1126" x2="3036" y2="1126"/>
    <line id="Capline-M" style="fill:none;stroke:#27AAE1;opacity:1;stroke-width:0.5;" x1="263" y1="1055.54" x2="3036" y2="1055.54"/>
    <line id="Baseline-L" style="fill:none;stroke:#27AAE1;opacity:1;stroke-width:0.5;" x1="263" y1="1556" x2="3036" y2="1556"/>
    <line id="Capline-L" style="fill:none;stroke:#27AAE1;opacity:1;stroke-width:0.5;" x1="263" y1="1485.54" x2="3036" y2="1485.54"/>
    <line id="left-margin-Regular-M" style="fill:none;stroke:#27AAE1;opacity:1;stroke-width:0.5;" x1="1391.3" y1="1030.79" x2="1391.3" y2="1150.12"/>
    <line id="right-margin-Regular-M" style="fill:none;stroke:#27AAE1;opacity:1;stroke-width:0.5;" x1="1498.82" y1="1030.79" x2="1498.82" y2="1150.12"/>
  </g>
  <g id="Symbols">
    <g id="Regular-M">
      <path d="M 1492.1 1060.53 V 1121.01 a 3.36 3.36 0 0 1 -3.36 3.36 H 1458.5 a 10.08 10.08 0 0 0 -10.08 10.055 3.318 3.318 0 0 1 -2.15 3.171 A 3.36 3.36 0 0 1 1441.7 1134.45 a 10.08 10.08 0 0 0 -10.08 -10.08 H 1401.38 a 3.36 3.36 0 0 1 -3.36 -3.36 V 1060.53 a 3.36 3.36 0 0 1 3.36 -3.36 H 1428.26 a 13.44 13.44 0 0 1 13.44 13.44 v 36.847 a 3.431 3.431 0 0 0 3.137 3.465 3.36 3.36 0 0 0 3.583 -3.36 V 1070.61 a 13.44 13.44 0 0 1 13.44 -13.44 h 26.88 A 3.36 3.36 0 0 1 1492.1 1060.53 Z"/>
    </g>
  </g>
</svg>
