<?xml version="1.0" encoding="UTF-8"?>
<!DOCTYPE svg PUBLIC "-//W3C//DTD SVG 1.1//EN" "http://www.w3.org/Graphics/SVG/1.1/DTD/svg11.dtd">
<!-- ph-bell-ringing-fill: Phosphor Icons (MIT, phosphoricons.com), converted to a custom symbol for Shelfie. -->
<svg version="1.1" xmlns="http://www.w3.org/2000/svg" width="3300" height="2200">
  <g id="Notes">
    <rect id="artboard" style="fill:white;opacity:1" x="0" y="0" width="3300" height="2200"/>
    <text id="template-version" style="stroke:none;fill:black;font-family:sans-serif;font-size:13;" transform="matrix(1 0 0 1 3036 1933)">Template v.3.0</text>
    <text id="descriptive-name" style="stroke:none;fill:black;font-family:sans-serif;font-size:13;" transform="matrix(1 0 0 1 263 1933)">ph-bell-ringing-fill</text>
  </g>
  <g id="Guides">
    <line id="Baseline-S" style="fill:none;stroke:#27AAE1;opacity:1;stroke-width:0.5;" x1="263" y1="696" x2="3036" y2="696"/>
    <line id="Capline-S" style="fill:none;stroke:#27AAE1;opacity:1;stroke-width:0.5;" x1="263" y1="625.541" x2="3036" y2="625.541"/>
    <line id="Baseline-M" style="fill:none;stroke:#27AAE1;opacity:1;stroke-width:0.5;" x1="263" y1="1126" x2="3036" y2="1126"/>
    <line id="Capline-M" style="fill:none;stroke:#27AAE1;opacity:1;stroke-width:0.5;" x1="263" y1="1055.54" x2="3036" y2="1055.54"/>
    <line id="Baseline-L" style="fill:none;stroke:#27AAE1;opacity:1;stroke-width:0.5;" x1="263" y1="1556" x2="3036" y2="1556"/>
    <line id="Capline-L" style="fill:none;stroke:#27AAE1;opacity:1;stroke-width:0.5;" x1="263" y1="1485.54" x2="3036" y2="1485.54"/>
    <line id="left-margin-Regular-M" style="fill:none;stroke:#27AAE1;opacity:1;stroke-width:0.5;" x1="1391.3" y1="1030.79" x2="1391.3" y2="1150.12"/>
    <line id="right-margin-Regular-M" style="fill:none;stroke:#27AAE1;opacity:1;stroke-width:0.5;" x1="1484.74" y1="1030.79" x2="1484.74" y2="1150.12"/>
  </g>
  <g id="Symbols">
    <g id="Regular-M">
      <path d="M 1473.06 1070.002 a 2.92 2.92 0 0 1 -3.935 -1.248 34.357 34.357 0 0 0 -12.213 -13.472 2.92 2.92 0 1 1 3.117 -4.942 40.683 40.683 0 0 1 14.279 15.728 A 2.92 2.92 0 0 1 1473.06 1070.002 Z M 1404.334 1070.33 a 2.92 2.92 0 0 0 2.591 -1.577 A 34.357 34.357 0 0 1 1419.139 1055.281 a 2.92 2.92 0 1 0 -3.117 -4.942 A 40.683 40.683 0 0 0 1401.743 1066.067 2.92 2.92 0 0 0 1404.334 1070.33 Z m 67.926 37.938 A 5.84 5.84 0 0 1 1467.22 1117.05 H 1452.328 a 14.6 14.6 0 0 1 -28.616 0 H 1408.82 a 5.84 5.84 0 0 1 -5.033 -8.782 C 1407.075 1102.593 1408.82 1094.522 1408.82 1084.93 a 29.2 29.2 0 0 1 58.4 0 C 1467.22 1094.519 1468.965 1102.589 1472.261 1108.268 Z M 1446.276 1117.05 H 1429.764 a 8.76 8.76 0 0 0 16.513 0 Z"/>
    </g>
  </g>
</svg>
