<svg xmlns="http://www.w3.org/2000/svg" viewBox="-18 -14 295 282" role="img" aria-labelledby="t">
  <title id="t">Shelfie app logo - detailed 3D</title>
  <!-- Detailed 3D version of shelfie-applogo.svg (the original is unchanged).
       Same layout: tile 259 x 234, top and bottom shelves, three standing books and one leaning book. -->
  <defs>
    <!-- ===== Tile ===== -->
    <linearGradient id="topFace" x1="0" y1="0" x2="0.3" y2="1">
      <stop offset="0" stop-color="#FFC24D"/>
      <stop offset="0.5" stop-color="#FFA500"/>
      <stop offset="1" stop-color="#F08F00"/>
    </linearGradient>
    <linearGradient id="sideFace" x1="0" y1="0" x2="0" y2="1">
      <stop offset="0" stop-color="#E08600"/>
      <stop offset="0.6" stop-color="#B96700"/>
      <stop offset="1" stop-color="#8F4E00"/>
    </linearGradient>
    <linearGradient id="gloss" x1="0" y1="0" x2="0" y2="1">
      <stop offset="0" stop-color="#FFFFFF" stop-opacity="0.42"/>
      <stop offset="0.7" stop-color="#FFFFFF" stop-opacity="0.08"/>
      <stop offset="1" stop-color="#FFFFFF" stop-opacity="0"/>
    </linearGradient>
    <linearGradient id="bevelOuter" x1="0" y1="0" x2="0" y2="1">
      <stop offset="0" stop-color="#FFE3A8"/>
      <stop offset="0.45" stop-color="#FFB733" stop-opacity="0.2"/>
      <stop offset="1" stop-color="#9C5500" stop-opacity="0.55"/>
    </linearGradient>
    <linearGradient id="bevelInner" x1="0" y1="0" x2="0" y2="1">
      <stop offset="0" stop-color="#B86A00" stop-opacity="0.35"/>
      <stop offset="0.5" stop-color="#B86A00" stop-opacity="0"/>
      <stop offset="1" stop-color="#FFD27A" stop-opacity="0.55"/>
    </linearGradient>
    <radialGradient id="glow" cx="0.3" cy="0.22" r="0.65">
      <stop offset="0" stop-color="#FFF1CC" stop-opacity="0.45"/>
      <stop offset="1" stop-color="#FFF1CC" stop-opacity="0"/>
    </radialGradient>
    <radialGradient id="vignette" cx="0.5" cy="0.45" r="0.72">
      <stop offset="0.6" stop-color="#8F4E00" stop-opacity="0"/>
      <stop offset="1" stop-color="#8F4E00" stop-opacity="0.28"/>
    </radialGradient>
    <!-- Fine grain so the tile reads as a material, not flat colour -->
    <filter id="grain" x="0" y="0" width="100%" height="100%">
      <feTurbulence type="fractalNoise" baseFrequency="0.9" numOctaves="2" seed="4" result="noise"/>
      <feColorMatrix in="noise" type="matrix" values="0 0 0 0 1  0 0 0 0 0.85  0 0 0 0 0.6  0 0 0 0.09 0"/>
      <feComposite in2="SourceGraphic" operator="in"/>
    </filter>
    <filter id="blur10" x="-30%" y="-30%" width="160%" height="160%"><feGaussianBlur stdDeviation="10"/></filter>
    <filter id="blur4" x="-30%" y="-30%" width="160%" height="160%"><feGaussianBlur stdDeviation="4"/></filter>
    <filter id="blur2" x="-30%" y="-30%" width="160%" height="160%"><feGaussianBlur stdDeviation="2"/></filter>
    <filter id="blur1" x="-30%" y="-30%" width="160%" height="160%"><feGaussianBlur stdDeviation="1.1"/></filter>

    <!-- ===== Shelves ===== -->
    <linearGradient id="plankFront" x1="0" y1="0" x2="0" y2="1">
      <stop offset="0" stop-color="#FFFDF8"/>
      <stop offset="1" stop-color="#EADFCB"/>
    </linearGradient>
    <linearGradient id="plankEnds" x1="0" y1="0" x2="1" y2="0">
      <stop offset="0" stop-color="#000000" stop-opacity="0.10"/>
      <stop offset="0.06" stop-color="#000000" stop-opacity="0"/>
      <stop offset="0.94" stop-color="#000000" stop-opacity="0"/>
      <stop offset="1" stop-color="#000000" stop-opacity="0.12"/>
    </linearGradient>

    <!-- ===== Books ===== -->
    <!-- Rounded spine: light across the middle-left, falling off at both sides -->
    <linearGradient id="spine" x1="0" y1="0" x2="1" y2="0">
      <stop offset="0" stop-color="#D8CAB0"/>
      <stop offset="0.28" stop-color="#FFFDF7"/>
      <stop offset="0.62" stop-color="#F6EEDF"/>
      <stop offset="1" stop-color="#CDBD9F"/>
    </linearGradient>
    <linearGradient id="band" x1="0" y1="0" x2="1" y2="0">
      <stop offset="0" stop-color="#D97A00"/>
      <stop offset="0.3" stop-color="#FFB23C"/>
      <stop offset="1" stop-color="#C96E00"/>
    </linearGradient>
    <linearGradient id="pages" x1="0" y1="0" x2="1" y2="0">
      <stop offset="0" stop-color="#EDE3CF"/>
      <stop offset="0.4" stop-color="#FFFFFF"/>
      <stop offset="1" stop-color="#E6DAC2"/>
    </linearGradient>

    <!-- One standing book, 26 wide x 94 tall, origin at its top-left -->
    <g id="book">
      <rect x="0" y="4" width="26" height="90" rx="8" fill="url(#spine)"/>
      <!-- Page block seen from above -->
      <rect x="2.5" y="0" width="21" height="9" rx="4.5" fill="url(#pages)"/>
      <path d="M5 3.2H21M5 5.6H21" stroke="#D9CCB3" stroke-width="0.6"/>
      <rect x="2.5" y="0" width="21" height="9" rx="4.5" fill="none" stroke="#CDBD9F" stroke-width="0.8"/>
      <!-- Head and tail bands -->
      <rect x="0" y="15" width="26" height="3.2" fill="url(#band)"/>
      <rect x="0" y="20" width="26" height="1.2" fill="url(#band)" opacity="0.8"/>
      <rect x="0" y="79" width="26" height="1.2" fill="url(#band)" opacity="0.8"/>
      <rect x="0" y="82.5" width="26" height="3.2" fill="url(#band)"/>
      <!-- Spine label -->
      <rect x="6" y="36" width="14" height="24" rx="2.5" fill="#FFF8EA" stroke="#DCCDB1" stroke-width="0.8"/>
      <path d="M9 43H17M9 47H17M10 51H16" stroke="#E0A040" stroke-width="1.2" stroke-linecap="round"/>
      <!-- Crisp rim -->
      <rect x="0" y="4" width="26" height="90" rx="8" fill="none" stroke="#C7B696" stroke-width="0.8"/>
    </g>
  </defs>

  <!-- ===== Shadows on the ground ===== -->
  <rect x="6" y="28" width="250" height="226" rx="37" fill="#4A2600" opacity="0.28" filter="url(#blur10)"/>
  <rect x="2" y="16" width="255" height="230" rx="37" fill="#4A2600" opacity="0.35" filter="url(#blur4)"/>

  <!-- ===== Tile body ===== -->
  <!-- Side wall (thickness) -->
  <rect x="0" y="14" width="258.75" height="234" rx="37.2" fill="url(#sideFace)"/>
  <!-- Rim where the top meets the side -->
  <rect x="0" y="1.5" width="258.75" height="234" rx="37.2" fill="#FFB02A"/>
  <!-- Top face -->
  <rect x="0" y="0" width="258.75" height="234" rx="37.2" fill="url(#topFace)"/>
  <rect x="0" y="0" width="258.75" height="234" rx="37.2" fill="#FFA500" filter="url(#grain)"/>
  <rect x="0" y="0" width="258.75" height="234" rx="37.2" fill="url(#glow)"/>
  <rect x="0" y="0" width="258.75" height="234" rx="37.2" fill="url(#vignette)"/>
  <!-- Bevels: outer edge catches light on top, inner step gives the face a pillowed rim -->
  <rect x="1.5" y="1.5" width="255.75" height="231" rx="35.7" fill="none" stroke="url(#bevelOuter)" stroke-width="3"/>
  <rect x="9" y="9" width="240.75" height="216" rx="29" fill="none" stroke="url(#bevelInner)" stroke-width="2"/>
  <!-- Gloss across the upper part -->
  <path d="M37.2 3H221.55A34.2 34.2 0 0 1 255.75 37.2V70C200 84 60 84 3 70V37.2A34.2 34.2 0 0 1 37.2 3Z" fill="url(#gloss)" filter="url(#blur2)"/>

  <!-- ===== Shadows cast by the shelves and books onto the tile ===== -->
  <g fill="#8A4700">
    <rect x="42" y="56" width="186" height="14" rx="7" opacity="0.32" filter="url(#blur4)"/>
    <rect x="38" y="190" width="186" height="14" rx="7" opacity="0.32" filter="url(#blur4)"/>
    <rect x="56" y="96" width="28" height="80" rx="9" opacity="0.28" filter="url(#blur4)"/>
    <rect x="84" y="81" width="28" height="94" rx="9" opacity="0.28" filter="url(#blur4)"/>
    <rect x="114" y="81" width="28" height="94" rx="9" opacity="0.28" filter="url(#blur4)"/>
    <rect x="-12" y="-44" width="26" height="90" rx="9" opacity="0.28" filter="url(#blur4)" transform="translate(186 128) rotate(-27)"/>
  </g>

  <!-- ===== Top shelf (a plank: lit top face, front face, dark underside) ===== -->
  <rect x="39" y="41" width="186" height="20" rx="7" fill="#C9B89A"/>
  <rect x="39" y="36" width="186" height="21" rx="7" fill="url(#plankFront)"/>
  <rect x="39" y="36" width="186" height="21" rx="7" fill="url(#plankEnds)"/>
  <rect x="44" y="37" width="176" height="4" rx="2" fill="#FFFFFF" opacity="0.9"/>
  <rect x="39" y="36" width="186" height="21" rx="7" fill="none" stroke="#D6C7AA" stroke-width="0.8"/>

  <!-- ===== Books ===== -->
  <!-- Contact shadows where each book meets the bottom shelf -->
  <g fill="#6E3A00" opacity="0.35" filter="url(#blur1)">
    <ellipse cx="65.7" cy="172" rx="14" ry="2.6"/>
    <ellipse cx="94.7" cy="172" rx="14" ry="2.6"/>
    <ellipse cx="124.7" cy="172" rx="14" ry="2.6"/>
    <ellipse cx="206" cy="170.5" rx="11" ry="2.4"/>
  </g>
  <!-- Shorter first book: same design, scaled down in height -->
  <g transform="translate(52.7 90) scale(1 0.83)">
    <use href="#book"/>
  </g>
  <use href="#book" transform="translate(81.7 75)"/>
  <use href="#book" transform="translate(111.7 75)"/>
  <!-- Leaning book, resting against its neighbour -->
  <g transform="translate(181.8 122.5) rotate(-27) translate(-12.5 -47)">
    <use href="#book" transform="scale(0.96 1)"/>
  </g>

  <!-- ===== Bottom shelf ===== -->
  <rect x="35" y="177" width="186" height="20" rx="7" fill="#C9B89A"/>
  <rect x="35" y="172" width="186" height="21" rx="7" fill="url(#plankFront)"/>
  <rect x="35" y="172" width="186" height="21" rx="7" fill="url(#plankEnds)"/>
  <rect x="40" y="173" width="176" height="4" rx="2" fill="#FFFFFF" opacity="0.9"/>
  <rect x="35" y="172" width="186" height="21" rx="7" fill="none" stroke="#D6C7AA" stroke-width="0.8"/>
</svg>
